<svg width="65" height="64" viewBox="0 0 65 64" fill="none" xmlns="http://www.w3.org/2000/svg">
<path d="M44.0959 5.33331C52.3333 5.33331 56.9199 10.08 56.9199 18.2133V45.76C56.9199 54.0266 52.3333 58.6666 44.0959 58.6666H21.7466C13.6399 58.6666 8.91992 54.0266 8.91992 45.76V18.2133C8.91992 10.08 13.6399 5.33331 21.7466 5.33331H44.0959ZM22.4666 41.9733C21.6666 41.8933 20.8933 42.2666 20.4666 42.96C20.0399 43.6266 20.0399 44.5066 20.4666 45.2C20.8933 45.8666 21.6666 46.2666 22.4666 46.16H43.3733C44.4373 46.0533 45.2399 45.144 45.2399 44.08C45.2399 42.9866 44.4373 42.08 43.3733 41.9733H22.4666ZM43.3733 29.8106H22.4666C21.3173 29.8106 20.3866 30.7466 20.3866 31.8933C20.3866 33.04 21.3173 33.9733 22.4666 33.9733H43.3733C44.5199 33.9733 45.4533 33.04 45.4533 31.8933C45.4533 30.7466 44.5199 29.8106 43.3733 29.8106ZM30.4373 17.7333H22.4666V17.76C21.3173 17.76 20.3866 18.6933 20.3866 19.84C20.3866 20.9866 21.3173 21.92 22.4666 21.92H30.4373C31.5866 21.92 32.5199 20.9866 32.5199 19.8106C32.5199 18.6666 31.5866 17.7333 30.4373 17.7333Z" fill="#FF6A58"/>
</svg>
