<svg width="25" height="24" viewBox="0 0 25 24" fill="none" xmlns="http://www.w3.org/2000/svg">
<path d="M12.9199 1C7.95732 1 3.91992 4.92664 3.91992 9.7531C3.91992 15.3148 7.63062 18.6703 10.0917 20.891C10.8747 21.6311 11.9016 22 12.9262 22C13.9486 22 14.9688 21.6324 15.7405 20.8984C18.2011 18.6778 21.9199 15.3205 21.9199 9.7531C21.9199 4.92664 17.8825 1 12.9199 1ZM12.9199 13.2543C10.935 13.2543 9.31992 11.6836 9.31992 9.7531C9.31992 7.8226 10.935 6.25186 12.9199 6.25186C14.9049 6.25186 16.5199 7.8226 16.5199 9.7531C16.5199 11.6836 14.9049 13.2543 12.9199 13.2543Z" fill="#01B9D0"/>
</svg>
