<svg width="25" height="24" viewBox="0 0 25 24" fill="none" xmlns="http://www.w3.org/2000/svg">
<path d="M17.8589 3C19.1999 3 20.4899 3.53 21.4389 4.481C22.3889 5.43 22.9199 6.71 22.9199 8.05V15.95C22.9199 18.74 20.6499 21 17.8589 21H7.97992C5.18892 21 2.91992 18.74 2.91992 15.95V8.05C2.91992 5.26 5.17892 3 7.97992 3H17.8589ZM18.9899 8.2C18.7799 8.189 18.5799 8.26 18.4289 8.4L13.9199 12C13.3399 12.481 12.5089 12.481 11.9199 12L7.41992 8.4C7.10892 8.17 6.67892 8.2 6.41992 8.47C6.14992 8.74 6.11992 9.17 6.34892 9.47L6.47992 9.6L11.0299 13.15C11.5899 13.59 12.2689 13.83 12.9799 13.83C13.6889 13.83 14.3799 13.59 14.9389 13.15L19.4499 9.54L19.5299 9.46C19.7689 9.17 19.7689 8.75 19.5189 8.46C19.3799 8.311 19.1889 8.22 18.9899 8.2Z" fill="#01B9D0"/>
</svg>
