<svg width="65" height="64" viewBox="0 0 65 64" fill="none" xmlns="http://www.w3.org/2000/svg">
<path d="M45.3471 5.33362C54.4138 5.33362 59.5871 10.4536 59.5871 19.547V44.4536C59.5871 53.4936 54.4404 58.6669 45.3738 58.6669H20.4671C11.3738 58.6669 6.25378 53.4936 6.25378 44.4536V19.547C6.25378 10.4536 11.3738 5.33362 20.4671 5.33362H45.3471ZM32.8938 20.0269C31.6671 20.0269 30.6804 21.0136 30.6804 22.2403V29.7603H23.1338C22.5471 29.7603 21.9871 30.0003 21.5605 30.4003C21.1605 30.8269 20.9205 31.3843 20.9205 31.9736C20.9205 33.2003 21.9071 34.1869 23.1338 34.2136H30.6804V41.7603C30.6804 42.9869 31.6671 43.9736 32.8938 43.9736C34.1204 43.9736 35.1071 42.9869 35.1071 41.7603V34.2136H42.6804C43.9071 34.1869 44.8938 33.2003 44.8938 31.9736C44.8938 30.747 43.9071 29.7603 42.6804 29.7603H35.1071V22.2403C35.1071 21.0136 34.1204 20.0269 32.8938 20.0269Z" fill="#C167A6"/>
</svg>
