<svg width="65" height="64" viewBox="0 0 65 64" fill="none" xmlns="http://www.w3.org/2000/svg">
<path d="M44.4932 5.33331C53.5332 5.33331 59.5866 11.68 59.5866 21.12V42.9093C59.5866 52.32 53.5332 58.6666 44.4932 58.6666H21.3732C12.3332 58.6666 6.25323 52.32 6.25323 42.9093V21.12C6.25323 11.68 12.3332 5.33331 21.3732 5.33331H44.4932ZM44.0666 24C43.1599 23.0933 41.6666 23.0933 40.7599 24L29.7466 35.0133L25.0799 30.3466C24.1732 29.44 22.6799 29.44 21.7732 30.3466C20.8666 31.2533 20.8666 32.72 21.7732 33.6533L28.1199 39.9733C28.5732 40.4266 29.1599 40.64 29.7466 40.64C30.3599 40.64 30.9466 40.4266 31.3999 39.9733L44.0666 27.3066C44.9732 26.4 44.9732 24.9333 44.0666 24Z" fill="#019CB6"/>
</svg>
