<svg width="29" height="29" viewBox="0 0 29 29" fill="none" xmlns="http://www.w3.org/2000/svg">
<path d="M7.14209 20.5C7.14209 20.5 11.206 19.6008 13.833 19.4906C16.6416 19.3727 21.0561 20.5 21.0561 20.5" stroke="#FF6D5B" stroke-width="0.604958"/>
<path d="M4.75135 16.5871C4.27222 16.5871 3.85117 16.4806 3.4882 16.2677C3.13006 16.0499 2.84936 15.7474 2.6461 15.3603C2.44767 14.9682 2.34846 14.5133 2.34846 13.9955C2.34846 13.4728 2.45009 13.013 2.65335 12.6162C2.86146 12.2145 3.15668 11.8999 3.53901 11.6724C3.92135 11.445 4.37869 11.3312 4.91106 11.3312C5.51118 11.3312 6.00724 11.474 6.39925 11.7595C6.79127 12.0451 7.04535 12.4419 7.1615 12.9501H6.07258C5.99998 12.7275 5.86447 12.5533 5.66604 12.4274C5.46762 12.2968 5.21354 12.2314 4.9038 12.2314C4.5747 12.2314 4.294 12.304 4.0617 12.4492C3.82939 12.5944 3.65274 12.7977 3.53175 13.059C3.41076 13.3203 3.35027 13.6325 3.35027 13.9955C3.35027 14.3633 3.41076 14.6754 3.53175 14.9319C3.65274 15.1885 3.82455 15.3845 4.04718 15.52C4.27464 15.6506 4.54082 15.716 4.84572 15.716C5.29097 15.716 5.62733 15.5974 5.85479 15.3603C6.0871 15.1183 6.22503 14.8061 6.26858 14.4238H5.01995V13.6906H7.25587V16.5H6.3557L6.27584 15.8539C6.16937 16.0136 6.04354 16.1491 5.89835 16.2604C5.758 16.3669 5.59345 16.4468 5.4047 16.5C5.21596 16.5581 4.99817 16.5871 4.75135 16.5871ZM9.70346 16.5871C9.34048 16.5871 9.01865 16.5048 8.73794 16.3403C8.46208 16.1757 8.24672 15.9459 8.09185 15.6506C7.93698 15.3554 7.85955 15.0142 7.85955 14.6271C7.85955 14.2302 7.93698 13.8793 8.09185 13.5744C8.24672 13.2695 8.46208 13.03 8.73794 12.8557C9.01381 12.6815 9.33564 12.5944 9.70346 12.5944C10.081 12.5944 10.4028 12.6767 10.669 12.8412C10.9352 13.0058 11.1384 13.2308 11.2788 13.5163C11.4191 13.8019 11.4893 14.1261 11.4893 14.4891C11.4893 14.5375 11.4869 14.5908 11.482 14.6488C11.482 14.7069 11.4796 14.7674 11.4748 14.8303H8.56372V14.2278H10.5093C10.4996 13.9616 10.4197 13.7559 10.2697 13.6107C10.1197 13.4607 9.93334 13.3857 9.71072 13.3857C9.54617 13.3857 9.39614 13.4292 9.26063 13.5163C9.12996 13.5986 9.02349 13.722 8.94121 13.8866C8.86378 14.0511 8.82506 14.2592 8.82506 14.5109V14.7214C8.82506 14.9392 8.85894 15.128 8.92669 15.2877C8.99929 15.4474 9.10092 15.5708 9.23159 15.6579C9.36226 15.745 9.51713 15.7886 9.6962 15.7886C9.89462 15.7886 10.0447 15.7571 10.1463 15.6942C10.2479 15.6264 10.3302 15.5345 10.3931 15.4183H11.3877C11.3199 15.6361 11.2062 15.8345 11.0465 16.0136C10.8916 16.1927 10.7004 16.333 10.473 16.4347C10.2455 16.5363 9.989 16.5871 9.70346 16.5871ZM13.7742 16.5C13.5226 16.5 13.2999 16.4613 13.1063 16.3838C12.9128 16.3016 12.7627 16.1685 12.6563 15.9846C12.5498 15.7958 12.4965 15.5393 12.4965 15.2151V13.5018H11.8359V12.6815H12.4965L12.6054 11.6144H13.4766V12.6815H14.4639V13.5018H13.4766V15.2296C13.4766 15.3941 13.5129 15.5079 13.5855 15.5708C13.6581 15.6337 13.7815 15.6652 13.9557 15.6652H14.4784V16.5H13.7742ZM15.1764 16.5V11.4184H17.0493C17.4704 11.4184 17.8164 11.4909 18.0874 11.6361C18.3633 11.7765 18.569 11.9701 18.7045 12.2169C18.84 12.4589 18.9078 12.7347 18.9078 13.0445C18.9078 13.33 18.8424 13.5962 18.7118 13.843C18.5811 14.0898 18.3802 14.2883 18.1092 14.4383C17.8382 14.5883 17.4849 14.6633 17.0493 14.6633H16.1564V16.5H15.1764ZM16.1564 13.8721H16.9913C17.3252 13.8721 17.5599 13.797 17.6954 13.647C17.8358 13.4921 17.9059 13.2913 17.9059 13.0445C17.9059 12.788 17.8358 12.5871 17.6954 12.4419C17.5599 12.2919 17.3252 12.2169 16.9913 12.2169H16.1564V13.8721ZM20.4239 16.5871C20.1286 16.5871 19.8842 16.5363 19.6906 16.4347C19.4971 16.3282 19.3519 16.1878 19.2551 16.0136C19.1583 15.8345 19.1099 15.641 19.1099 15.4329C19.1099 15.2006 19.1655 14.9973 19.2769 14.8231C19.393 14.6488 19.5648 14.5133 19.7923 14.4165C20.0246 14.3197 20.3125 14.2713 20.6562 14.2713H21.5346C21.5346 14.0681 21.5176 13.9035 21.4837 13.7777C21.4499 13.647 21.3821 13.5502 21.2805 13.4873C21.1837 13.4244 21.0409 13.3929 20.8522 13.3929C20.6779 13.3929 20.5352 13.4292 20.4239 13.5018C20.3125 13.5696 20.2424 13.6761 20.2133 13.8212H19.2623C19.2865 13.5696 19.3664 13.3542 19.5019 13.1752C19.6423 12.9912 19.8286 12.8485 20.0609 12.7468C20.2932 12.6452 20.5594 12.5944 20.8594 12.5944C21.2079 12.5944 21.5055 12.6525 21.7523 12.7686C22.004 12.8799 22.1928 13.0469 22.3186 13.2695C22.4493 13.4873 22.5146 13.7535 22.5146 14.0681V16.5H21.6943L21.5854 15.9338C21.5321 16.0306 21.4668 16.1201 21.3894 16.2024C21.3168 16.2798 21.2321 16.3476 21.1353 16.4056C21.0385 16.4637 20.9296 16.5073 20.8086 16.5363C20.6925 16.5702 20.5642 16.5871 20.4239 16.5871ZM20.6562 15.8321C20.7675 15.8321 20.8715 15.8079 20.9683 15.7595C21.0651 15.7111 21.1498 15.6458 21.2224 15.5635C21.2998 15.4764 21.3603 15.3772 21.4039 15.2659C21.4523 15.1546 21.4837 15.0336 21.4983 14.9029V14.8739H20.7651C20.6199 14.8739 20.5013 14.8932 20.4093 14.9319C20.3174 14.9707 20.2496 15.0263 20.2061 15.0989C20.1674 15.1715 20.148 15.2538 20.148 15.3457C20.148 15.4474 20.1674 15.5345 20.2061 15.6071C20.2496 15.6797 20.3101 15.7353 20.3876 15.7741C20.465 15.8128 20.5545 15.8321 20.6562 15.8321ZM23.677 18.0971L24.5191 16.0935H24.3013L22.8567 12.6815H23.9166L24.9474 15.1715L25.8766 12.6815H26.922L24.7079 18.0971H23.677Z" fill="black"/>
</svg>
